# xmcd
#
# Track frame offsets: 
#        150
#        14345
#        32757
#        50087
#        69274
#        89440
#        103797
#        122433
#        140102
#        158004
#        222068
#        234588
#        252122
#        268802
#
# Disc length: 3805 seconds
#
# Revision: 0
# Processed by: cddbd v1.5.2PL0 Copyright (c) Steve Scherf et al.
# Submitted via: ExactAudioCopy v0.95b4
#
DISCID=c20edb0e
DTITLE=Thirty Seconds To Mars - A Beautiful Lie
DYEAR=2007
DGENRE=Rock
TTITLE0=Attack
TTITLE1=A Beautiful Lie
TTITLE2=The Kill
TTITLE3=Was It A Dream?
TTITLE4=The Fantasy
TTITLE5=Saviour
TTITLE6=From Yesterday
TTITLE7=The Story
TTITLE8=R-Evolve
TTITLE9=A Modern Myth
TTITLE10=Battle Of One
TTITLE11=Hunter
TTITLE12=The Kill (Rebirth)
TTITLE13=A Beautiful Lie (Acoustic)
EXTD=
EXTT0=
EXTT1=
EXTT2=
EXTT3=
EXTT4=
EXTT5=
EXTT6=
EXTT7=
EXTT8=
EXTT9=
EXTT10=
EXTT11=
EXTT12=
EXTT13=
PLAYORDER=
